# xmcd
#
# Track frame offsets:
# 150
# 21336
# 39950
# 62092
# 77667
# 95497
# 111144
# 133700
# 148493
# 163067
# 179414
# 196337
# 213556
#
# Disc length: 3005 seconds
#
# Revision: 0
# Processed by: cddbd v1.5.1PL0 Copyright (c) Steve Scherf et al.
# Submitted via: Audion 3.0.2 (http://www.panic.com/audion/)
#
DISCID=be0bbb0d
DTITLE=In Flames - Clayman
DYEAR=1900
DGENRE=
TTITLE0=Bullet Ride
TTITLE1=Pinball Map
TTITLE2=Only For The Week
TTITLE3=As The Future Repeats Today
TTITLE4=Square Nothing
TTITLE5=Clayman
TTITLE6=Sattelites And Astronauts
TTITLE7=Brush The Dust Away
TTITLE8=Swin
TTITLE9=Suburan Me
TTITLE10=Another Day In Quick sand
TTITLE11=World Of Promises
TTITLE12=Strong And Smart
EXTD=
EXTT0=
EXTT1=
EXTT2=
EXTT3=
EXTT4=
EXTT5=
EXTT6=
EXTT7=
EXTT8=
EXTT9=
EXTT10=
EXTT11=
EXTT12=
PLAYORDER=
